<svg xmlns="http://www.w3.org/2000/svg" xmlns:xlink="http://www.w3.org/1999/xlink" width="91" height="91" viewBox="0 0 91 91"><defs><linearGradient id="a" x1="0.56" y1="0.635" x2="-0.824" y2="-1.37" gradientUnits="objectBoundingBox"><stop offset="0" stop-color="#ffd01b"/><stop offset="1" stop-color="#ff8a1b"/></linearGradient><clipPath id="c"><rect width="60" height="60" transform="translate(232 178)" fill="none" stroke="#707070" stroke-width="1"/></clipPath></defs><g transform="translate(-853 -444)"><g transform="translate(0 -39)"><circle cx="45.5" cy="45.5" r="45.5" transform="translate(853 483)" opacity="0.15" fill="url(#a)"/><circle cx="23.5" cy="23.5" r="23.5" transform="translate(875 505)" fill="url(#a)"/><g transform="translate(637 321)"><g clip-path="url(#c)"><g transform="translate(232 178)"><path d="M30,9.615A12.615,12.615,0,1,0,42.615,22.231,12.615,12.615,0,0,0,30,9.615Zm0,22.154a9.538,9.538,0,1,1,9.538-9.538A9.539,9.539,0,0,1,30,31.769Z"/><path d="M56.692,56.923H31.308L46.538,41a24.692,24.692,0,0,0,.231-34.077A22.385,22.385,0,0,0,30.538,0,22.846,22.846,0,0,0,13.923,7.154a24.692,24.692,0,0,0-.231,34.077l15,15.692H3.308a1.538,1.538,0,1,0,0,3.077H56.692a1.538,1.538,0,0,0,0-3.077ZM15.846,39.154C8,31,8.154,17.615,16.077,9.308A20.076,20.076,0,0,1,30.538,3.077a19.307,19.307,0,0,1,14.077,6,21.788,21.788,0,0,1-.231,29.846L30,53.923Z"/></g></g></g></g><g transform="translate(-1.809 2.588)"><path d="M1184.879-7168.026v-4.534H1180.3a1.3,1.3,0,0,1-1.3-1.3,1.3,1.3,0,0,1,1.3-1.3h4.578v-4.534a1.3,1.3,0,0,1,1.3-1.3,1.3,1.3,0,0,1,1.3,1.3v4.534h4.493a1.3,1.3,0,0,1,1.3,1.3,1.3,1.3,0,0,1-1.3,1.3h-4.493v4.534a1.3,1.3,0,0,1-1.3,1.3A1.3,1.3,0,0,1,1184.879-7168.026Z" transform="translate(-252.085 7660.412)" fill="#030708"/><rect width="14.276" height="2.603" rx="1.302" transform="translate(858.809 485.248)" fill="#030708"/></g></g></svg>