<svg xmlns="http://www.w3.org/2000/svg" xmlns:xlink="http://www.w3.org/1999/xlink" width="91" height="91" viewBox="0 0 91 91"><defs><linearGradient id="a" x1="0.56" y1="0.635" x2="-0.824" y2="-1.37" gradientUnits="objectBoundingBox"><stop offset="0" stop-color="#ffd01b"/><stop offset="1" stop-color="#ff8a1b"/></linearGradient><clipPath id="c"><rect width="60" height="60" transform="translate(56 534)" fill="none" stroke="#707070" stroke-width="1"/></clipPath></defs><g transform="translate(-855 -486)"><circle cx="45.5" cy="45.5" r="45.5" transform="translate(855 486)" opacity="0.25" fill="url(#a)"/><circle cx="23.5" cy="23.5" r="23.5" transform="translate(877 508)" fill="url(#a)"/><g transform="translate(815 -32)"><g clip-path="url(#c)"><g transform="translate(56 534)"><path d="M51.81,26.568V9.638c0-2.921-2.589-4.979-5.511-4.979H41.851V1.074A.929.929,0,0,0,40.789.011H34.481c-.73,0-1.262.332-1.262,1.062V4.659H18.614V1.074c0-.73-.863-1.062-1.593-1.062H10.713c-.73,0-1.394.332-1.394,1.062V4.659H5.269A5,5,0,0,0,.024,9.638V48.146a5,5,0,0,0,5.245,4.979H27.444A18.258,18.258,0,0,0,59.976,41.838,18.988,18.988,0,0,0,51.81,26.568ZM35.876,2.667H39.2V8.642h-3.32Zm-23.9,0h3.984V8.642H11.975ZM2.68,9.638A2.342,2.342,0,0,1,5.269,7.314h4.05V9.837A1.527,1.527,0,0,0,10.713,11.3H17.02a1.726,1.726,0,0,0,1.593-1.461V7.314H33.22V9.837A1.394,1.394,0,0,0,34.482,11.3h6.307c.73,0,1.062-.73,1.062-1.461V7.314H46.3c1.461,0,2.855.863,2.855,2.324v8.3H2.68ZM5.269,50.469A2.342,2.342,0,0,1,2.68,48.146V20.593H49.154v4.581a19.918,19.918,0,0,0-7.37-1.593A18.258,18.258,0,0,0,25.718,50.469H5.269Zm36.383,6.9A15.6,15.6,0,1,1,57.188,41.706c0,.044,0,.088,0,.133A15.536,15.536,0,0,1,41.652,57.374Z"/><path d="M47.893,41.838H41.851V33.871a1.328,1.328,0,0,0-2.656,0v9.295a1.593,1.593,0,0,0,1.593,1.328h7.1a1.328,1.328,0,0,0,0-2.656Z"/></g></g></g></g></svg>