<svg xmlns="http://www.w3.org/2000/svg" xmlns:xlink="http://www.w3.org/1999/xlink" width="91" height="91" viewBox="0 0 91 91"><defs><linearGradient id="a" x1="0.56" y1="0.635" x2="-0.824" y2="-1.37" gradientUnits="objectBoundingBox"><stop offset="0" stop-color="#ffd01b"/><stop offset="1" stop-color="#ff8a1b"/></linearGradient><clipPath id="c"><rect width="60" height="60" transform="translate(232 355)" fill="none" stroke="#707070" stroke-width="1"/></clipPath></defs><g transform="translate(-853 -601)"><circle cx="23.5" cy="23.5" r="23.5" transform="translate(875 623)" fill="url(#a)"/><circle cx="45.5" cy="45.5" r="45.5" transform="translate(853 601)" opacity="0.15" fill="url(#a)"/><g transform="translate(637 262)"><g clip-path="url(#c)"><g transform="translate(232 355)"><path d="M47.57,7.861H42.142V5.433c0-.786-.857-1.143-1.643-1.143H36.285A6.389,6.389,0,0,0,29.929,0,6.5,6.5,0,0,0,23.572,4.29H19.43c-.786,0-1.571.357-1.571,1.143V7.861H12.43a6.071,6.071,0,0,0-6,5.785V54.572c0,3.143,2.857,5.428,6,5.428H47.57c3.143,0,6-2.285,6-5.428V13.647A6.071,6.071,0,0,0,47.57,7.861ZM20.715,7.147h3.928A1.572,1.572,0,0,0,26,5.861a4.142,4.142,0,0,1,3.928-3.214,4.071,4.071,0,0,1,3.857,3.214,1.571,1.571,0,0,0,1.428,1.286h4.071v5.714H20.715Zm30,47.425c0,1.571-1.571,2.571-3.143,2.571H12.43c-1.571,0-3.143-1-3.143-2.571V13.647a3.214,3.214,0,0,1,3.143-2.928h5.428v3.643a1.5,1.5,0,0,0,1.571,1.357H40.5a1.571,1.571,0,0,0,1.643-1.357V10.718H47.57a3.214,3.214,0,0,1,3.143,2.928V54.572Z"/><path d="M22.5,31.859l-4.571,4.357-1.928-2a1.429,1.429,0,0,0-2-.071,1.5,1.5,0,0,0,0,2.071l2.928,3a1.285,1.285,0,0,0,1,.429,1.428,1.428,0,0,0,1-.429L24.5,33.931c.029-.026.056-.054.082-.082a1.357,1.357,0,0,0-.082-1.917A1.428,1.428,0,0,0,22.5,31.859Z"/><path d="M45,35H28.572a1.428,1.428,0,1,0,0,2.857H45A1.428,1.428,0,1,0,45,35Z"/><path d="M45,23.574H28.572a1.428,1.428,0,1,0,0,2.857H45a1.428,1.428,0,1,0,0-2.857Z"/><path d="M22.5,43.287l-4.571,4.357-1.928-2a1.429,1.429,0,0,0-2-.071,1.5,1.5,0,0,0,0,2.071l2.928,3a1.285,1.285,0,0,0,1,.429,1.428,1.428,0,0,0,1-.429L24.5,45.358c.029-.026.056-.054.082-.082a1.357,1.357,0,0,0-.082-1.917A1.428,1.428,0,0,0,22.5,43.287Z"/><path d="M45,46.43H28.572a1.428,1.428,0,1,0,0,2.857H45a1.428,1.428,0,1,0,0-2.857Z"/><path d="M14.715,30.145h8.5a1.384,1.384,0,0,0,.147,0,1.357,1.357,0,0,0,1.282-1.428V21a1.428,1.428,0,0,0-1.428-1.428h-8.5A1.428,1.428,0,0,0,13.287,21v7.714a1.385,1.385,0,0,0,0,.147A1.357,1.357,0,0,0,14.715,30.145Zm1.428-7.714h5.642v4.857H16.144Z"/></g></g></g></g></svg>