<svg xmlns="http://www.w3.org/2000/svg" xmlns:xlink="http://www.w3.org/1999/xlink" width="117" height="117" viewBox="0 0 117 117"><defs><linearGradient id="a" x1="0.56" y1="0.635" x2="-0.824" y2="-1.37" gradientUnits="objectBoundingBox"><stop offset="0" stop-color="#ffd01b"/><stop offset="1" stop-color="#ff8a1b"/></linearGradient></defs><g transform="translate(-193 -41)"><circle cx="58.5" cy="58.5" r="58.5" transform="translate(193 41)" fill="#fff8dd"/><circle cx="30.5" cy="30.5" r="30.5" transform="translate(221 69)" fill="url(#a)"/><rect width="78" height="78" transform="translate(213 61)" fill="none"/><g transform="translate(-938.847 -320.395)"><path d="M1229.562,576.376l-26.968-41.467a1.763,1.763,0,0,0-1.478-.8h-20.33a1.763,1.763,0,0,0-1.475.8l-27.176,41.467a1.763,1.763,0,0,0,1.475,2.73h74.474a1.763,1.763,0,0,0,1.478-2.725Zm-38.715-3.914a1.763,1.763,0,0,0-1.763,1.763v1.348H1166.9l19.929-37.94h2.254V540a1.763,1.763,0,1,0,3.526,0v-2.363h2.668l19.929,37.94h-22.6v-1.348A1.763,1.763,0,0,0,1190.847,572.462Zm-9.109-34.829h1.108l-19.929,37.94h-6.043Zm37.453,37.94-19.929-37.94h.9l24.675,37.94Z" transform="translate(0 -125.309)" fill="#030504"/><path d="M1334.874,654.762a1.763,1.763,0,1,0-3.526,0v6.846a1.763,1.763,0,1,0,3.526,0Z" transform="translate(-142.263 -219.537)" fill="#030504"/><path d="M1333.11,597.371a1.763,1.763,0,0,0,1.763-1.763v-6.846a1.763,1.763,0,1,0-3.526,0v6.846A1.763,1.763,0,0,0,1333.11,597.371Z" transform="translate(-142.263 -167.229)" fill="#030504"/><path d="M1296.879,408.361a1.764,1.764,0,0,0,1.38-.665c1.09-1.369,10.652-13.554,10.652-19.665a12.032,12.032,0,1,0-24.064,0c0,6.111,9.562,18.3,10.653,19.665A1.763,1.763,0,0,0,1296.879,408.361Zm0-28.835a8.515,8.515,0,0,1,8.505,8.505c0,3.26-4.762,10.69-8.505,15.681-3.744-4.988-8.505-12.417-8.505-15.681A8.515,8.515,0,0,1,1296.879,379.526Z" transform="translate(-105.41)" fill="#030504"/><path d="M1326.464,411.748a5.808,5.808,0,1,0-5.808,5.809A5.815,5.815,0,0,0,1326.464,411.748Zm-8.09,0a2.282,2.282,0,1,1,2.282,2.282A2.285,2.285,0,0,1,1318.374,411.748Z" transform="translate(-129.186 -23.729)" fill="#030504"/></g></g></svg>