<svg xmlns="http://www.w3.org/2000/svg" xmlns:xlink="http://www.w3.org/1999/xlink" width="91" height="91" viewBox="0 0 91 91"><defs><linearGradient id="a" x1="0.56" y1="0.635" x2="-0.824" y2="-1.37" gradientUnits="objectBoundingBox"><stop offset="0" stop-color="#ffd01b"/><stop offset="1" stop-color="#ff8a1b"/></linearGradient><clipPath id="c"><rect width="60" height="60" transform="translate(56 534)" fill="none" stroke="#707070" stroke-width="1"/></clipPath></defs><g transform="translate(-857 -973)"><circle cx="45.5" cy="45.5" r="45.5" transform="translate(857 973)" opacity="0.25" fill="url(#a)"/><circle cx="23.5" cy="23.5" r="23.5" transform="translate(879 995)" fill="url(#a)"/><g transform="translate(817 455)"><g clip-path="url(#c)"><g transform="translate(56 534)"><path d="M52.615,14.769,39.769.615A1.462,1.462,0,0,0,38.615,0H13.538A6.692,6.692,0,0,0,6.923,6.538V53.462A6.692,6.692,0,0,0,13.538,60H46.462a6.692,6.692,0,0,0,6.615-6.538V15.769A1.693,1.693,0,0,0,52.615,14.769ZM40,5.923l8,8.692H41.308C40.769,14.615,40,14,40,13.539ZM50,53.462a3.615,3.615,0,0,1-3.539,3.462H13.538A3.615,3.615,0,0,1,10,53.462V6.538a3.615,3.615,0,0,1,3.539-3.462H36.923V13.538a4.505,4.505,0,0,0,4.385,4.154H50Z"/><path d="M39.692,32.923l-5.769-.846-2.538-5.154a1.462,1.462,0,0,0-2.769,0l-2.538,5.154-5.769.846a1.6,1.6,0,0,0-.846,2.692l4.154,3.923-1,5.769a1.692,1.692,0,0,0,.615,1.538,1.538,1.538,0,0,0,1.615.077L30,44.231l5.154,2.692a1.154,1.154,0,0,0,.692.154l.923-.231a1.692,1.692,0,0,0,.615-1.538l-1-5.769,4.154-3.923a1.6,1.6,0,0,0-.846-2.692Zm-6.077,5a1.616,1.616,0,0,0-.462,1.308l.615,3.539-3.077-1.615a1.154,1.154,0,0,0-1.385,0l-3.077,1.615.615-3.539a1.616,1.616,0,0,0-.462-1.308l-2.538-2.385L27.308,35a1.616,1.616,0,0,0,1.154-.846L30,31.077l1.538,3.077A1.615,1.615,0,0,0,32.692,35l3.462.538Z"/></g></g></g></g></svg>