<svg xmlns="http://www.w3.org/2000/svg" xmlns:xlink="http://www.w3.org/1999/xlink" width="91" height="91" viewBox="0 0 91 91"><defs><linearGradient id="a" x1="0.56" y1="0.635" x2="-0.824" y2="-1.37" gradientUnits="objectBoundingBox"><stop offset="0" stop-color="#ffd01b"/><stop offset="1" stop-color="#ff8a1b"/></linearGradient></defs><g transform="translate(-572 -689)"><circle cx="23.5" cy="23.5" r="23.5" transform="translate(596 711)" fill="url(#a)"/><circle cx="45.5" cy="45.5" r="45.5" transform="translate(572 689)" opacity="0.15" fill="url(#a)"/><g transform="translate(357 349)"><g transform="translate(233.379 355.89)"><circle cx="4.837" cy="4.837" r="4.837" transform="translate(15.586)" fill="#030708"/><path d="M1323.339,546.887l-9.209,4.824a.523.523,0,0,0-.127.834l1.594,1.594a.524.524,0,0,1,.049.684l-.874,1.165a.524.524,0,0,1-.72.114l-12.428-8.746a.524.524,0,0,1-.222-.415l-.472-19.828a.524.524,0,0,0-.17-.373l-5.418-4.967a.523.523,0,0,0-.509-.114l-13.616,4.226a.525.525,0,0,0-.215.13l-1.073,1.073a.524.524,0,0,0-.081.635l4.479,7.615a.522.522,0,0,1,.006.519l-2.207,3.973a.525.525,0,0,0-.066.254V569.9a.524.524,0,0,0,.523.523h2.923a.524.524,0,0,0,.512-.414l4.036-18.832a.523.523,0,0,1,.918-.22l5.5,6.764a.521.521,0,0,1,.116.29l.917,11.929a.524.524,0,0,0,.522.483h3.33a.523.523,0,0,0,.523-.538l-.464-16.253a.52.52,0,0,0-.075-.254l-1.281-2.136a.521.521,0,0,1-.068-.353c.029-.178.076-.467.129-.8a.524.524,0,0,1,.818-.347l9.8,6.9a.523.523,0,0,1,.18.635l-5.316,12.406a.523.523,0,0,0,.492.729l21.717-.462a.526.526,0,0,0,.35-.145l10.078-9.62a.524.524,0,0,0-.018-.774l-14.291-12.447A.524.524,0,0,0,1323.339,546.887Zm-37.3-15.541-.849-1.982a.523.523,0,0,1,.33-.708l2.831-.85a.524.524,0,0,1,.579.8l-1.982,2.831A.523.523,0,0,1,1286.043,531.346Zm9.286,10.188,1.72-2.866a.523.523,0,0,1,.972.269v4.62a.524.524,0,0,1-.9.364c-.714-.738-1.361-1.393-1.717-1.75A.521.521,0,0,1,1295.33,541.534Z" transform="translate(-1279.776 -511.655)" fill="#030708"/></g><rect width="60" height="60" transform="translate(232 355)" fill="none"/></g></g></svg>