<svg xmlns="http://www.w3.org/2000/svg" xmlns:xlink="http://www.w3.org/1999/xlink" width="117" height="117" viewBox="0 0 117 117"><defs><linearGradient id="a" x1="0.56" y1="0.635" x2="-0.824" y2="-1.37" gradientUnits="objectBoundingBox"><stop offset="0" stop-color="#ffd01b"/><stop offset="1" stop-color="#ff8a1b"/></linearGradient><clipPath id="c"><rect width="78" height="78" transform="translate(-0.201 -0.201)" fill="none" stroke="#707070" stroke-width="1"/></clipPath></defs><g transform="translate(-213 -231)"><circle cx="30.5" cy="30.5" r="30.5" transform="translate(241 259)" fill="url(#a)"/><circle cx="58.5" cy="58.5" r="58.5" transform="translate(213 231)" opacity="0.15" fill="url(#a)"/><g transform="translate(233.201 251.201)"><g transform="translate(0 0)" clip-path="url(#c)"><g transform="translate(6.643 0.19)"><g transform="translate(0 0)"><path d="M22.618,19.379a1.708,1.708,0,0,0,0,.181,1.673,1.673,0,0,0,1.761,1.58h29.5a1.706,1.706,0,0,0,.181,0,1.673,1.673,0,0,0,1.58-1.761V1.764a1.7,1.7,0,0,0,0-.181A1.673,1.673,0,0,0,53.885,0H24.38A1.707,1.707,0,0,0,24.2,0a1.673,1.673,0,0,0-1.58,1.761ZM26.141,3.525H52.123V17.617H26.141Z" transform="translate(0.146 0)"/><path d="M64.454,41.2V23.581a1.7,1.7,0,0,0,0-.181,1.673,1.673,0,0,0-1.761-1.58H24.38a1.708,1.708,0,0,0-.181,0,1.673,1.673,0,0,0-1.58,1.761V41.2a1.707,1.707,0,0,0,0,.181,1.673,1.673,0,0,0,1.761,1.58H62.692a1.708,1.708,0,0,0,.181,0A1.673,1.673,0,0,0,64.454,41.2Zm-3.523-1.761H26.141V25.342H60.93V39.434Z" transform="translate(0.146 6.367)"/><path d="M55.646,45.4a1.706,1.706,0,0,0,0-.181,1.673,1.673,0,0,0-1.761-1.58H24.38a1.7,1.7,0,0,0-.181,0,1.673,1.673,0,0,0-1.58,1.761V63.012a1.705,1.705,0,0,0,0,.181,1.673,1.673,0,0,0,1.761,1.58h29.5a1.71,1.71,0,0,0,.181,0,1.673,1.673,0,0,0,1.58-1.761ZM52.123,61.251H26.141V47.159H52.123V61.251Z" transform="translate(0.146 12.734)"/><path d="M20.353,7.43A7.662,7.662,0,0,0,5.214,9.094a7.486,7.486,0,0,0,5.813,7.486V30.849a7.662,7.662,0,0,0,0,14.972V60.089a7.486,7.486,0,0,0-5.813,7.486,7.662,7.662,0,1,0,9.336-7.486V45.821a7.7,7.7,0,0,0,0-14.972V16.581A7.662,7.662,0,0,0,20.353,7.43ZM17.1,67.575a4.228,4.228,0,0,1-4.228,4.139,4.139,4.139,0,0,1,0-8.279A4.228,4.228,0,0,1,17.1,67.575Zm-.085-29.243a4.14,4.14,0,0,1-4.137,4.142h-.005a4.139,4.139,0,1,1,4.142-4.142Zm-4.142-25.1a4.14,4.14,0,0,1,0-8.279A4.228,4.228,0,0,1,17.1,9.094,4.228,4.228,0,0,1,12.876,13.234Z" transform="translate(-4.996 0.42)"/><path d="M28.47,8.3H38.6a1.761,1.761,0,0,0,0-3.523H28.47a1.761,1.761,0,1,0,0,3.523Z" transform="translate(1.34 1.393)"/><path d="M47.406,8.865H28.47a1.761,1.761,0,1,0,0,3.523H47.406a1.761,1.761,0,1,0,0-3.523Z" transform="translate(1.34 2.587)"/><path d="M28.47,30.114H38.6a1.761,1.761,0,0,0,0-3.523H28.47a1.761,1.761,0,0,0,0,3.523Z" transform="translate(1.34 7.76)"/><path d="M28.47,34.2H47.406a1.761,1.761,0,0,0,0-3.523H28.47a1.761,1.761,0,0,0,0,3.523Z" transform="translate(1.34 8.954)"/><path d="M28.47,51.931H38.6a1.761,1.761,0,0,0,0-3.523H28.47a1.761,1.761,0,0,0,0,3.523Z" transform="translate(1.34 14.127)"/><path d="M28.47,56.021H47.406a1.761,1.761,0,0,0,0-3.523H28.47a1.761,1.761,0,0,0,0,3.523Z" transform="translate(1.34 15.321)"/></g></g></g></g></g></svg>