<svg xmlns="http://www.w3.org/2000/svg" xmlns:xlink="http://www.w3.org/1999/xlink" width="91" height="91" viewBox="0 0 91 91"><defs><linearGradient id="a" x1="0.56" y1="0.635" x2="-0.824" y2="-1.37" gradientUnits="objectBoundingBox"><stop offset="0" stop-color="#ffd01b"/><stop offset="1" stop-color="#ff8a1b"/></linearGradient></defs><g transform="translate(-853 -798)"><circle cx="45.5" cy="45.5" r="45.5" transform="translate(853 798)" opacity="0.25" fill="url(#a)"/><circle cx="23.5" cy="23.5" r="23.5" transform="translate(875 820)" fill="url(#a)"/><path d="M27.544,6H8.454A5.454,5.454,0,0,0,3,11.454V49.633a5.454,5.454,0,0,0,5.454,5.454H46.633a5.454,5.454,0,0,0,5.454-5.454V30.544" transform="translate(868 816.785)" fill="none" stroke="#000" stroke-linecap="round" stroke-linejoin="round" stroke-width="3"/><path d="M40.634,4.512a5.785,5.785,0,0,1,8.181,8.181L22.908,38.6,12,41.328l2.727-10.908Z" transform="translate(876.362 813.182)" fill="none" stroke="#000" stroke-linecap="round" stroke-linejoin="round" stroke-width="3"/></g></svg>