<svg height="18.035" viewBox="0 0 17.675 18.035" width="17.675" xmlns="http://www.w3.org/2000/svg"><path d="m139.207 108.6a7.729 7.729 0 0 0 -.19-1.844h-8.467v3.347h4.97a4.407 4.407 0 0 1 -1.844 2.926l-.017.112 2.677 2.074.185.019a8.817 8.817 0 0 0 2.685-6.633" fill="#4285f4" transform="translate(-121.532 -99.387)"/><path d="m21.981 163.6a8.6 8.6 0 0 0 5.972-2.184l-2.846-2.2a5.337 5.337 0 0 1 -3.126.9 5.429 5.429 0 0 1 -5.13-3.747l-.106.009-2.784 2.154-.036.1a9.011 9.011 0 0 0 8.056 4.97" fill="#34a853" transform="translate(-12.963 -145.569)"/><path d="m3.888 77.187a5.552 5.552 0 0 1 -.3-1.784 5.834 5.834 0 0 1 .291-1.784l-.006-.119-2.819-2.188-.092.044a9 9 0 0 0 0 8.1l2.926-2.264" fill="#fbbc05" transform="translate(0 -66.386)"/><path d="m21.981 3.487a5 5 0 0 1 3.487 1.343l2.545-2.485a8.664 8.664 0 0 0 -6.032-2.345 9.011 9.011 0 0 0 -8.056 4.97l2.916 2.264a5.451 5.451 0 0 1 5.14-3.747" fill="#eb4335" transform="translate(-12.963)"/></svg>