<svg height="90.552" viewBox="0 0 302 90.552" width="302" xmlns="http://www.w3.org/2000/svg" xmlns:xlink="http://www.w3.org/1999/xlink"><radialGradient id="a" cx=".497" cy=".507" gradientUnits="objectBoundingBox" r=".73"><stop offset=".462" stop-color="#fff"/><stop offset=".498" stop-color="#fcfcfc"/><stop offset=".783" stop-color="#ebebeb"/><stop offset="1" stop-color="#e6e6e6"/></radialGradient><radialGradient id="b" cx=".5" cy=".5" gradientTransform="matrix(1.333 0 0 1 -.167 0)" gradientUnits="objectBoundingBox" r=".442"><stop offset="0" stop-color="#fbbd00"/><stop offset=".266" stop-color="#fbb700"/><stop offset=".597" stop-color="#fba800"/><stop offset=".962" stop-color="#fb8f00"/><stop offset="1" stop-color="#fb8c00"/></radialGradient><clipPath id="c"><ellipse cx="45.276" cy="45.276" rx="45.276" ry="45.276"/></clipPath><radialGradient id="d" cx=".5" cy=".5" gradientTransform="matrix(.669 0 0 1 .165 0)" r=".636" xlink:href="#b"/><clipPath id="e"><path d="m223.308 649.973s13.084 9.655 16.092 17.421l8.186-8.886-18.541-13.364z" transform="translate(-223.308 -645.145)"/></clipPath><g fill="#fff"><path d="m418.38 625.929v-4.173a20.922 20.922 0 0 0 3.366 1.017 16.447 16.447 0 0 0 3.472.385 9.746 9.746 0 0 0 3.7-.491 2 2 0 0 0 1.07-2.034 2.462 2.462 0 0 0 -.491-1.613 3.9 3.9 0 0 0 -1.613-1.035q-1.122-.438-3.506-1.1a11.168 11.168 0 0 1 -4.98-2.455 6.318 6.318 0 0 1 .841-8.871q2.279-1.683 6.628-1.683a25.476 25.476 0 0 1 3.734.263 14.53 14.53 0 0 1 2.893.684v4.173a16.826 16.826 0 0 0 -6-1.087 9.147 9.147 0 0 0 -3.559.526 1.928 1.928 0 0 0 -1.175 1.928 2.117 2.117 0 0 0 .438 1.4 3.585 3.585 0 0 0 1.473.929 30.745 30.745 0 0 0 3.208.965q3.927 1.051 5.435 2.717a6.106 6.106 0 0 1 1.508 4.26 5.653 5.653 0 0 1 -2.314 4.787q-2.315 1.736-6.838 1.735a18.216 18.216 0 0 1 -7.29-1.227z" transform="translate(-309.9 -572.869)"/><path d="m465.255 613.088h-2.489l.42-3.507h6.8v16.619h-4.734zm-.385-10.274h5.154v3.717h-5.154z" transform="translate(-335.421 -572.266)"/><path d="m491.348 640.621a16.026 16.026 0 0 1 -3.244-.7v-3.542a18.428 18.428 0 0 0 3.244.719 25.881 25.881 0 0 0 3.594.263 16.465 16.465 0 0 0 3.542-.263q1.051-.263 1.052-.929a.769.769 0 0 0 -.491-.771 5.9 5.9 0 0 0 -1.964-.21h-4.523a5.509 5.509 0 0 1 -3.331-.842 2.877 2.877 0 0 1 -1.122-2.455 3.187 3.187 0 0 1 .579-1.876 3.909 3.909 0 0 1 1.77-1.314 5 5 0 0 1 -2.839-4.839 5.437 5.437 0 0 1 1.98-4.646q1.981-1.49 5.944-1.49a15.443 15.443 0 0 1 1.683.1 13.631 13.631 0 0 1 1.543.246h6.241l-.1 2.981h-2.63a3.7 3.7 0 0 1 1.087 2.84 5.275 5.275 0 0 1 -1.648 4.12 6.824 6.824 0 0 1 -4.734 1.49 14.079 14.079 0 0 1 -2.1-.175 5.2 5.2 0 0 0 -1.806.508 1.074 1.074 0 0 0 -.684.929.643.643 0 0 0 .351.631 2.54 2.54 0 0 0 1.087.175h4.7a5.859 5.859 0 0 1 3.892 1.157 4.08 4.08 0 0 1 1.367 3.3q0 4.839-8.591 4.839a30.792 30.792 0 0 1 -3.849-.246zm7.136-14.5a3.058 3.058 0 0 0 .842-2.437 3.227 3.227 0 0 0 -.842-2.507 5.926 5.926 0 0 0 -5.786 0 3.149 3.149 0 0 0 -.877 2.507 3.066 3.066 0 0 0 .842 2.42 4.449 4.449 0 0 0 2.91.736 4.527 4.527 0 0 0 2.911-.719z" transform="translate(-349.574 -580.758)"/><path d="m531.85 618.074h4.383l.175 1.578a9.871 9.871 0 0 1 2.665-1.385 9.545 9.545 0 0 1 3.191-.543 5.472 5.472 0 0 1 6.312 6.312v10.659h-4.734v-10.415a3.3 3.3 0 0 0 -.7-2.4 3.606 3.606 0 0 0 -2.524-.684 5.4 5.4 0 0 0 -2.174.473 5.963 5.963 0 0 0 -1.859 1.244v11.782h-4.735z" transform="translate(-374.77 -580.758)"/><path d="m574.8 608.335h-6.943v-3.646h18.585v3.646h-6.908v18.935h-4.734z" transform="translate(-395.28 -573.333)"/><path d="m610.954 618.074h4.383l.21 1.718a13.12 13.12 0 0 1 2.805-1.3 16.891 16.891 0 0 1 3.261-.771v3.579a22.354 22.354 0 0 0 -3.226.719 13.021 13.021 0 0 0 -2.7 1.07v11.606h-4.734z" transform="translate(-419.826 -580.758)"/><path d="m636.932 633.7a4.578 4.578 0 0 1 -1.7-3.805 4.838 4.838 0 0 1 1.77-3.945 7.852 7.852 0 0 1 5.1-1.455h4.909v-.456a3.129 3.129 0 0 0 -.368-1.648 2.189 2.189 0 0 0 -1.3-.877 9.654 9.654 0 0 0 -2.648-.281 17.2 17.2 0 0 0 -5.47.877v-3.331a14.187 14.187 0 0 1 2.893-.772 21.467 21.467 0 0 1 3.559-.28q7.854 0 7.855 6.417v10.554h-4.1l-.246-1.508q-2.033 1.859-6.031 1.859a6.582 6.582 0 0 1 -4.223-1.349zm8.205-2.28a4.947 4.947 0 0 0 1.876-1.35v-2.63h-4.8q-2.77 0-2.77 2.279 0 2.209 3.015 2.209a6.7 6.7 0 0 0 2.679-.512z" transform="translate(-433.654 -580.758)"/><path d="m681.506 632.836q-2.367-2.209-2.367-6.452 0-4.277 2.49-6.47a9.994 9.994 0 0 1 6.838-2.191 16.082 16.082 0 0 1 3.016.245 10.429 10.429 0 0 1 2.454.807v3.4a10.338 10.338 0 0 0 -4.523-.912 6.21 6.21 0 0 0 -4.12 1.157q-1.35 1.157-1.35 3.962a5.175 5.175 0 0 0 1.279 3.91 5.925 5.925 0 0 0 4.155 1.21 10.286 10.286 0 0 0 4.593-.982v3.506a14.159 14.159 0 0 1 -5.645 1.017q-4.453.002-6.82-2.207z" transform="translate(-458.663 -580.758)"/><path d="m721.258 602.244h4.734v13.009l6.206-6h5.4l-6.7 6.8 7.083 9.818h-5.015l-5.049-7.328-1.929 1.858v5.47h-4.734z" transform="translate(-482.654 -571.941)"/><path d="m763.73 632.854q-2.472-2.191-2.472-6.5a8.868 8.868 0 0 1 2.157-6.354q2.156-2.279 6.294-2.279a8.2 8.2 0 0 1 5.874 1.981 6.984 6.984 0 0 1 2.086 5.313v3.015h-12.027a3.587 3.587 0 0 0 1.77 2.7 8.994 8.994 0 0 0 4.19.771 15.53 15.53 0 0 0 2.717-.245 12.46 12.46 0 0 0 2.368-.631v3.366a14.8 14.8 0 0 1 -6.067 1.052 10.03 10.03 0 0 1 -6.89-2.189zm9.8-7.732v-.912q0-3.085-3.682-3.086a4.591 4.591 0 0 0 -3.261.929 4.175 4.175 0 0 0 -.946 3.068z" transform="translate(-505.437 -580.758)"/><path d="m807.041 618.074h4.383l.21 1.718a13.118 13.118 0 0 1 2.806-1.3 16.891 16.891 0 0 1 3.261-.771v3.579a22.357 22.357 0 0 0 -3.226.719 13.042 13.042 0 0 0 -2.7 1.07v11.606h-4.734z" transform="translate(-531.514 -580.758)"/><path d="m839.256 634.8a12.266 12.266 0 0 1 -2.734-.666v-3.927a12.149 12.149 0 0 0 2.7.754 17.387 17.387 0 0 0 2.911.262 9.161 9.161 0 0 0 2.507-.228.9.9 0 0 0 .684-.929 1.08 1.08 0 0 0 -.632-.982 15.044 15.044 0 0 0 -2.419-.912q-.526-.14-1.332-.421a9.209 9.209 0 0 1 -3.594-1.929 4.809 4.809 0 0 1 .632-6.838q1.77-1.262 5.557-1.262a18.79 18.79 0 0 1 2.823.21 13.822 13.822 0 0 1 2.4.561v3.892a9.631 9.631 0 0 0 -2.139-.666 11.867 11.867 0 0 0 -2.314-.246 9.92 9.92 0 0 0 -2.49.228q-.807.228-.806.894a.955.955 0 0 0 .578.894 15.079 15.079 0 0 0 2.227.789l1.157.35a13.652 13.652 0 0 1 3.121 1.315 4.147 4.147 0 0 1 1.561 1.631 5.4 5.4 0 0 1 .473 2.419 4.283 4.283 0 0 1 -1.858 3.77 9.725 9.725 0 0 1 -5.505 1.28 24.364 24.364 0 0 1 -3.508-.243z" transform="translate(-548.126 -580.758)"/></g><ellipse cx="45.276" cy="45.276" fill="url(#a)" rx="45.276" ry="45.276"/><path d="m250.631 571.59q-3.147-4.532-4.154-6.1a17.718 17.718 0 0 1 -1.951-3.808 11.466 11.466 0 0 1 -.5-3.556 11.666 11.666 0 0 1 1.636-6.042 12.319 12.319 0 0 1 4.405-4.4 11.972 11.972 0 0 1 12.083 0 12.319 12.319 0 0 1 4.405 4.4 11.666 11.666 0 0 1 1.636 6.042 11.464 11.464 0 0 1 -.5 3.556 17.715 17.715 0 0 1 -1.951 3.808q-1.007 1.574-4.154 6.1l-4.216 6.041a1.573 1.573 0 0 1 -2.518 0q-1.641-2.391-4.221-6.041zm9.031-9.912a5.013 5.013 0 1 0 -3.556 1.479 4.847 4.847 0 0 0 3.555-1.479z" fill="url(#b)" transform="translate(-210.83 -539.927)"/><g clip-path="url(#c)"><path d="m165.807 675.71h25.98c4.691-27.363 31.263-49.306 65.5-54.723v-6.368q-2.731-.129-5.5-.127c-46.738-.001-84.771 27.257-85.98 61.218z" fill="#666" transform="translate(-166.279 -578.916)"/><path d="m268.382 619.469v1.225c-40.68 2.924-73.17 27.172-77.858 57.852h-5.239c4.315-32.415 39.624-57.884 83.097-59.077z" fill="#fff" transform="translate(-177.373 -581.752)"/><path d="m257.325 675.71h-25.98c-4.691-27.363-31.263-49.306-65.5-54.723v-6.368q2.732-.129 5.5-.127c46.738-.001 84.772 27.257 85.98 61.218z" fill="url(#d)" transform="translate(-166.3 -578.916)"/><path d="m165.844 619.469v1.225c40.68 2.924 73.171 27.172 77.858 57.852h5.239c-4.311-32.415-39.623-57.884-83.097-59.077z" fill="#fff" transform="translate(-166.3 -581.752)"/><path d="m165.807 675.71h25.98c4.691-27.363 31.263-49.306 65.5-54.723v-6.368q-2.731-.129-5.5-.127c-46.738-.001-84.771 27.257-85.98 61.218z" fill="#666" transform="translate(-166.279 -578.916)"/><path d="m268.382 619.469v1.225c-40.68 2.924-73.17 27.172-77.858 57.852h-5.239c4.315-32.415 39.624-57.884 83.097-59.077z" fill="#fff" transform="translate(-177.373 -581.752)"/><g clip-path="url(#e)" opacity=".61" transform="translate(24.277 48.769)"><path d="m165.807 675.71h25.98c4.691-27.363 31.263-49.306 65.5-54.723v-6.368q-2.731-.129-5.5-.127c-46.738-.001-84.771 27.257-85.98 61.218z" fill="#666" transform="translate(-190.557 -627.685)"/></g><path d="m257.325 675.71h-25.98c-4.691-27.363-31.263-49.306-65.5-54.723v-6.368q2.732-.129 5.5-.127c46.738-.001 84.772 27.257 85.98 61.218z" fill="url(#d)" transform="translate(-166.3 -578.916)"/><path d="m165.844 619.469v1.225c40.68 2.924 73.171 27.172 77.858 57.852h5.239c-4.311-32.415-39.623-57.884-83.097-59.077z" fill="#fff" transform="translate(-166.3 -581.752)"/></g></svg>