<svg xmlns="http://www.w3.org/2000/svg" xmlns:xlink="http://www.w3.org/1999/xlink" width="91" height="91" viewBox="0 0 91 91"><defs><linearGradient id="a" x1="0.56" y1="0.635" x2="-0.824" y2="-1.37" gradientUnits="objectBoundingBox"><stop offset="0" stop-color="#ffd01b"/><stop offset="1" stop-color="#ff8a1b"/></linearGradient></defs><g transform="translate(-575 -510)"><circle cx="23.5" cy="23.5" r="23.5" transform="translate(597 532)" fill="url(#a)"/><circle cx="45.5" cy="45.5" r="45.5" transform="translate(575 510)" opacity="0.15" fill="url(#a)"/><g transform="translate(536 170)"><rect width="60" height="60" transform="translate(56 355)" fill="none"/><g transform="translate(56 357.459)"><path d="M814.536,739.556,801.943,735.8a.407.407,0,0,1-.241-.2l-5.6-10.423a.384.384,0,0,0-.038-.058l-9.156-11.605a.4.4,0,0,1,.321-.642h2.464a.412.412,0,0,1,.231.07l8.661,5.831a.412.412,0,0,0,.575-.117l2.42-3.792a.393.393,0,0,0-.11-.536l-9.265-6.4a.412.412,0,0,0-.235-.073H775.719a4.654,4.654,0,0,0,.14-1.116,4.843,4.843,0,1,0-4.842,4.742,4.891,4.891,0,0,0,2.418-.638l.422,9.1a.392.392,0,0,1-.13.311l-7,6.331a.392.392,0,0,0-.055.524l2.405,3.3a.412.412,0,0,0,.565.094l9.182-6.348a.4.4,0,0,0,.172-.325v-1.423a.408.408,0,0,1,.728-.244l2.989,3.763a.393.393,0,0,1-.1.578l-10.938,6.963a.4.4,0,0,0-.133.14l-7.727,13.513a.394.394,0,0,0,.157.543l4.443,2.417a.411.411,0,0,0,.536-.127l7.721-11.343a.411.411,0,0,1,.117-.113l11.047-7.033a.413.413,0,0,1,.509.052l10.514,10.3a.415.415,0,0,0,.182.1l14.28,3.765a.407.407,0,0,0,.506-.313l1-5.363A.4.4,0,0,0,814.536,739.556Z" transform="translate(-754.825 -702)"/><circle cx="5.225" cy="5.225" r="5.225" transform="translate(0 26.19)"/><path d="M756.77,797.854h46.537l1.7-4.354H754.5Z" transform="translate(-753.629 -740.813)"/></g></g></g></svg>