<svg xmlns="http://www.w3.org/2000/svg" xmlns:xlink="http://www.w3.org/1999/xlink" width="91" height="91" viewBox="0 0 91 91"><defs><linearGradient id="a" x1="0.56" y1="0.635" x2="-0.824" y2="-1.37" gradientUnits="objectBoundingBox"><stop offset="0" stop-color="#ffd01b"/><stop offset="1" stop-color="#ff8a1b"/></linearGradient><clipPath id="c"><rect width="60" height="60" transform="translate(1000 1247)" fill="none" stroke="#707070" stroke-width="1"/></clipPath></defs><g transform="translate(-142 -727)"><circle cx="45.5" cy="45.5" r="45.5" transform="translate(142 727)" opacity="0.25" fill="url(#a)"/><circle cx="23.5" cy="23.5" r="23.5" transform="translate(164 749)" fill="url(#a)"/><g transform="translate(-842 -504)" clip-path="url(#c)"><g transform="translate(1000 1247)"><path d="M33.225,36.075h-24a1.5,1.5,0,0,0,0,3h24a1.5,1.5,0,1,0,0-3Z"/><path d="M9.225,30.075h12.75a1.5,1.5,0,1,0,0-3H9.225a1.5,1.5,0,1,0,0,3Z"/><path d="M33.225,45.075h-24a1.5,1.5,0,0,0,0,3h24a1.5,1.5,0,0,0,0-3Z"/><path d="M42.375,17.85,26.325,2.7a1.35,1.35,0,0,0-.975-.45H6.225A6.3,6.3,0,0,0,0,8.325v43.5A6.15,6.15,0,0,0,6.225,57.75h30.75a5.775,5.775,0,0,0,5.777-5.773c0-.051,0-.1,0-.152V18.975A1.575,1.575,0,0,0,42.375,17.85ZM26.25,6.975,38.325,18H27.975a1.65,1.65,0,0,1-1.725-1.425v-9.6ZM37.129,54.746c-.051,0-.1,0-.154,0H6.225A3.15,3.15,0,0,1,3,51.825V8.325A3.3,3.3,0,0,1,6.225,5.25H23.25V16.575A4.65,4.65,0,0,0,27.975,21H39.75V51.825A2.775,2.775,0,0,1,37.129,54.746Z"/><path d="M58.8,7.575V6.3a4.425,4.425,0,0,0-1.2-2.925,4.65,4.65,0,0,0-3.075-1.2A4.2,4.2,0,0,0,50.25,6.3h0V7.5H47.1a1.35,1.35,0,0,0-.975.45,1.125,1.125,0,0,0-.375.975v15.9a1.5,1.5,0,0,0,3,0V10.5h.75V48.675c0,.225-.075.45.075.675L53.25,57a1.425,1.425,0,0,0,1.35.825A1.35,1.35,0,0,0,55.875,57l3.9-7.65A2.4,2.4,0,0,0,60,48.675V9A1.575,1.575,0,0,0,58.8,7.575ZM53.25,6.3a1.2,1.2,0,0,1,1.2-1.125,1.05,1.05,0,0,1,.825.3,1.2,1.2,0,0,1,.375.825V7.5h-2.4V6.3Zm1.275,46.725L53.25,50.25h2.625ZM57,47.25H52.5v-18H57v18Zm0-21H52.5V25.5H57v.75Zm0-3.75H52.5v-12H57v12Z"/></g></g></g></svg>