<svg xmlns="http://www.w3.org/2000/svg" xmlns:xlink="http://www.w3.org/1999/xlink" width="91" height="91" viewBox="0 0 91 91"><defs><linearGradient id="a" x1="0.56" y1="0.635" x2="-0.824" y2="-1.37" gradientUnits="objectBoundingBox"><stop offset="0" stop-color="#ffd01b"/><stop offset="1" stop-color="#ff8a1b"/></linearGradient></defs><g transform="translate(-573 -333)"><circle cx="45.5" cy="45.5" r="45.5" transform="translate(573 333)" opacity="0.15" fill="url(#a)"/><circle cx="23.5" cy="23.5" r="23.5" transform="translate(597 354)" fill="url(#a)"/><g transform="translate(358 169)"><rect width="60" height="60" transform="translate(232 178)" fill="none"/><g transform="translate(238.897 178)"><circle cx="4.138" cy="4.138" r="4.138" transform="translate(23.448)"/><circle cx="3.448" cy="3.448" r="3.448" transform="translate(8.276 5.517)"/><path d="M307.591,426.654a.5.5,0,0,0,.665.1L313.8,423a.5.5,0,0,0,.175-.209l.369-.829a.5.5,0,0,1,.947.234l-.2,3.016a.484.484,0,0,1-.015.091l-2.945,11.414a.5.5,0,0,0,.48.619h.507a.5.5,0,0,1,.443.717l-.358.716a.5.5,0,0,0-.05.265l1.117,12.655a.5.5,0,0,0,.493.452h2.494a.5.5,0,0,0,.492-.555l-1.476-12.177a.494.494,0,0,1,.032-.243l.607-1.519a.5.5,0,0,1,.46-.311h2.041a.5.5,0,0,1,.468.331l4.773,13.585a.5.5,0,0,0,.663.291l1.814-.777a.5.5,0,0,0,.272-.62L323.11,438a.5.5,0,0,1,.467-.66h2.184a.5.5,0,0,0,.483-.607l-2.086-9.041a.5.5,0,0,1,.371-.594l4.1-.946a.5.5,0,0,0,.371-.594l-.935-4.052a.5.5,0,0,0-.639-.358.5.5,0,0,1-.652-.47v-.944a.5.5,0,0,1,.288-.45l4.7-2.168a.5.5,0,0,0,.143-.1l.127-.127a.5.5,0,0,1,.825.211l1.672,5.685a.5.5,0,0,1,0,.276L330.687,436.5a.5.5,0,0,0-.019.124l-.376,15.793a.5.5,0,0,0,.5.507h2.918a.5.5,0,0,0,.494-.471l.752-15.038a.508.508,0,0,1,.03-.146l2.124-5.764a.5.5,0,0,1,.948.062l1.567,6.892a.492.492,0,0,0,.032.1l5.987,13.1a.5.5,0,0,0,.7.224l1.865-1.065a.5.5,0,0,0,.2-.635l-5.613-12.348a.5.5,0,0,1-.044-.2V426.747a.5.5,0,0,1,.292-.452l7.083-3.187a.5.5,0,0,0,.263-.618l-1.643-4.6a.5.5,0,0,0-.587-.314l-1.927.482,1.286-2.892a.5.5,0,0,0-.024-.449l-4.094-7.071a.5.5,0,0,0-.178-.179l-5.38-3.165a1.882,1.882,0,0,0-2.146.166l-3.166,2.591a.5.5,0,0,0-.151.212l-2.6,7.069a.5.5,0,0,1-.281.289l-3.323,1.329a.5.5,0,0,1-.593-.18l-4.589-6.708a.5.5,0,0,0-.644-.156l-4.518,2.433a.5.5,0,0,0-.222.246l-3.778,9.069a.5.5,0,0,1-.152.2l-4.96,3.9a.5.5,0,0,0-.081.7Zm34.747-13.985,1.8,2.244a.5.5,0,0,1,.08.474l-1.228,3.48-.1.025a.5.5,0,0,1-.61-.407l-.815-5.433A.5.5,0,0,1,342.339,412.669Z" transform="translate(-306.319 -395.453)"/><rect width="46.897" height="1.379" transform="translate(0 58.621)"/></g></g></g></svg>