<svg xmlns="http://www.w3.org/2000/svg" xmlns:xlink="http://www.w3.org/1999/xlink" width="91" height="91" viewBox="0 0 91 91"><defs><linearGradient id="a" x1="0.56" y1="0.635" x2="-0.824" y2="-1.37" gradientUnits="objectBoundingBox"><stop offset="0" stop-color="#ffd01b"/><stop offset="1" stop-color="#ff8a1b"/></linearGradient></defs><g transform="translate(-575 -109)"><rect width="60" height="60" transform="translate(591 125)" fill="none"/><circle cx="45.5" cy="45.5" r="45.5" transform="translate(575 109)" fill="#fff8dd"/><circle cx="24" cy="24" r="24" transform="translate(597 131)" fill="url(#a)"/><g transform="translate(590.714 124.713)"><g transform="translate(0.286 0.286)" fill="none" stroke="#030708" stroke-width="4"><circle cx="30" cy="30" r="30" stroke="none"/><circle cx="30" cy="30" r="28" fill="none"/></g><path d="M10.273-19.714A6.056,6.056,0,0,0,5.76-18.047c.13-3.6,2.087-5.459,5.139-5.459a5.877,5.877,0,0,1,3.417.941l1.565-3.2a9.626,9.626,0,0,0-5.087-1.291c-5.5,0-9.313,3.631-9.313,10.139,0,6.078,3.13,9.332,8.165,9.332,3.861,0,6.913-2.42,6.913-6.266C16.559-17.4,13.794-19.714,10.273-19.714Zm-.861,8.875c-2.035,0-3.209-1.183-3.209-2.8A2.889,2.889,0,0,1,9.36-16.46a2.787,2.787,0,0,1,3.1,2.824A2.763,2.763,0,0,1,9.412-10.839ZM25.924-7.585c4.513,0,7.826-3.523,7.826-9.736s-3.313-9.736-7.826-9.736c-4.487,0-7.826,3.523-7.826,9.736S21.437-7.585,25.924-7.585Zm0-3.684c-2.087,0-3.548-1.775-3.548-6.051s1.461-6.051,3.548-6.051c2.113,0,3.574,1.775,3.574,6.051S28.037-11.269,25.924-11.269Z" transform="translate(12.673 47.784)" fill="#030708"/></g></g></svg>