<svg xmlns="http://www.w3.org/2000/svg" xmlns:xlink="http://www.w3.org/1999/xlink" width="91" height="91" viewBox="0 0 91 91"><defs><linearGradient id="a" x1="0.56" y1="0.635" x2="-0.824" y2="-1.37" gradientUnits="objectBoundingBox"><stop offset="0" stop-color="#ffd01b"/><stop offset="1" stop-color="#ff8a1b"/></linearGradient></defs><g transform="translate(-853 -923)"><circle cx="45.5" cy="45.5" r="45.5" transform="translate(853 923)" opacity="0.25" fill="url(#a)"/><circle cx="23.5" cy="23.5" r="23.5" transform="translate(875 945)" fill="url(#a)"/><path d="M52.077,0H16.616a6.077,6.077,0,0,0-6.153,6c0,.026,0,.052,0,.077v37H7.923a6.615,6.615,0,0,0-6.385,6.462V53a7,7,0,0,0,6.923,6.769V60H51.384a7.231,7.231,0,0,0,7.077-7V6.308A6.538,6.538,0,0,0,52.077,0ZM8.616,56.923a4.077,4.077,0,0,1-4-3.923V49.539a3.538,3.538,0,0,1,3.308-3.385H41a3.131,3.131,0,0,1,2.846,3.385V53c0,1.385.615,2.385,1.385,3.923ZM55.384,53a4.077,4.077,0,0,1-4,3.923h-.462a4.077,4.077,0,0,1-4-3.923V49.539c0-3.461-2.538-6.462-5.923-6.462H13.462v-37a3,3,0,0,1,3-3H52.077a3.461,3.461,0,0,1,3.308,3.231Z" transform="translate(866 939)"/><path d="M49.384,32.692v-.077a4.692,4.692,0,0,0-4.461,3.461H30V12.923l3,2.923a1.384,1.384,0,0,0,1.077.462,2.077,2.077,0,0,0,1.154-.385,1.692,1.692,0,0,0,0-2.231L29.692,8.077a1.461,1.461,0,0,0-2.065-.089c-.031.028-.061.058-.089.089L22,13.693a1.615,1.615,0,0,0,0,2.231,1.461,1.461,0,0,0,2.066-.065l.011-.012,2.846-2.923V37.539a1.846,1.846,0,0,0,1.692,1.692H45.077a4.615,4.615,0,0,0,4.308,2.846,4.692,4.692,0,0,0,0-9.385Zm1.538,4.615a1.538,1.538,0,0,1-1.538,1.538,1.615,1.615,0,1,1,0-3.154,1.538,1.538,0,0,1,1.54,1.537C50.925,37.255,50.924,37.282,50.923,37.308Z" transform="translate(866 939)"/><path d="M19.692,19.462A4.538,4.538,0,0,0,15.231,24a4.462,4.462,0,0,0,4.461,4.461A4.539,4.539,0,0,0,24.231,24,4.615,4.615,0,0,0,19.692,19.462Zm0,5.923A1.385,1.385,0,0,1,18.308,24a1.462,1.462,0,0,1,1.385-1.462A1.539,1.539,0,0,1,21.154,24,1.462,1.462,0,0,1,19.692,25.385Z" transform="translate(866 939)"/><path d="M35.615,23.154l1.615,1.615-1.615,1.692a1.461,1.461,0,0,0-.089,2.065c.028.031.058.061.089.089a1.539,1.539,0,0,0,1.077.462,1.384,1.384,0,0,0,1.077-.462L39.461,27l1.615,1.615a1.461,1.461,0,0,0,2.065.089c.031-.028.061-.058.089-.089a1.461,1.461,0,0,0,.089-2.065c-.028-.031-.058-.061-.089-.089l-1.615-1.692,1.615-1.615A1.538,1.538,0,0,0,41.077,21l-1.615,1.615L37.769,21a1.538,1.538,0,0,0-2.154,2.154Z" transform="translate(866 939)"/></g></svg>