<svg xmlns="http://www.w3.org/2000/svg" xmlns:xlink="http://www.w3.org/1999/xlink" width="91" height="91" viewBox="0 0 91 91"><defs><linearGradient id="a" x1="0.56" y1="0.635" x2="-0.824" y2="-1.37" gradientUnits="objectBoundingBox"><stop offset="0" stop-color="#ffd01b"/><stop offset="1" stop-color="#ff8a1b"/></linearGradient></defs><g transform="translate(-577 -539)"><circle cx="45.5" cy="45.5" r="45.5" transform="translate(577 539)" opacity="0.25" fill="url(#a)"/><circle cx="23.5" cy="23.5" r="23.5" transform="translate(599 561)" fill="url(#a)"/><g transform="translate(537 21)"><rect width="60" height="60" transform="translate(56 534)" fill="none"/><g transform="translate(56.809 534.704)"><circle cx="5.799" cy="5.799" r="5.799" transform="translate(30.366)"/><path d="M541.654,583.232h28.158a.988.988,0,0,1,.215.024l9.5,2.1a1,1,0,0,0,1.146-.623l1.269-3.394a.993.993,0,0,1,1.1-.631l1.022.18a.994.994,0,0,1,.8,1.2l-1.659,7.455a1,1,0,0,1-1.042.776l-11.1-.8A1,1,0,0,0,570,590.572l2.293,36.7a1,1,0,0,1-.993,1.056h-.953a1,1,0,0,1-.965-.756l-4.159-16.887a1,1,0,0,0-1.948.078L560.543,627.5a.994.994,0,0,1-.981.834h-.88a1,1,0,0,1-.994-.994V590.271a1,1,0,0,0-.821-.979l-15.387-2.739a1,1,0,0,1-.82-.979v-1.348A.994.994,0,0,1,541.654,583.232Z" transform="translate(-526.709 -569.831)"/><rect width="12.878" height="15.877" rx="1.293" transform="translate(0 13.4)"/></g></g></g></svg>